<?xml version="1.0" encoding="utf-8"?>
<!-- Generator: Adobe Illustrator 21.0.0, SVG Export Plug-In . SVG Version: 6.00 Build 0)  -->
<svg version="1.1" id="Layer_1" xmlns="http://www.w3.org/2000/svg" xmlns:xlink="http://www.w3.org/1999/xlink" x="0px" y="0px"
	 viewBox="0 0 805 805" style="enable-background:new 0 0 805 805;" xml:space="preserve">
<style type="text/css">
	.st0{display:none;}
	.st1{display:inline;fill:#1E1E1D;}
	.st2{fill:#111010;stroke:#CC6600;stroke-width:0.4713;stroke-miterlimit:10;}
	.st3{fill:none;stroke:#CC6600;stroke-width:0.4713;stroke-miterlimit:10;}
	.st4{fill:none;stroke:#CC6600;stroke-width:0.3607;stroke-miterlimit:10;}
	.st5{fill:none;stroke:#CC6600;stroke-width:0.2876;stroke-miterlimit:10;}
</style>
<g class="st0">
	<rect x="2.5" y="-21.1" class="st1" width="500" height="350"/>
</g>
<g>
	<circle class="st2" cx="404.7" cy="408.8" r="396.2"/>
	<path id="XMLID_1_" class="st3" d="M404.4,519.8c-18.4-1.6-36.7-7.8-53-19.1c-49.6-34.4-61.9-102.5-27.5-152.1
		c31.8-45.9,92.4-59.9,140.6-34.5c-37.7-3.2-76,13.3-99.1,46.7c-34.4,49.6-22.1,117.7,27.5,152.1
		C396.7,515.4,400.5,517.7,404.4,519.8z"/>
	<polygon class="st4" points="400.9,255.9 477.3,115.1 475.4,275.7 614.6,191 530,330.3 695.9,325.7 549.9,404.8 698,483.9 
		532.6,481.9 618.5,622.6 478,536.4 479.3,701.6 402.8,556.5 325.4,700.6 326.4,536.4 188.9,620.5 272.9,487.1 113.1,489.8 
		251.9,410.1 112.5,330.3 271.9,333 191.6,194.1 326.4,276.6 324.8,116.9 	"/>
	<polygon class="st3" points="404.7,14.1 428.2,156.4 499.4,25.1 497.4,194.5 602.2,66.8 551.3,202 678.8,124.4 590.1,270.3 
		746.5,211.4 633,304.6 785,300.4 634.9,381.7 799.5,408.8 650,433.5 787.8,507.1 623.3,505.1 746.7,606.5 600.1,551.1 683.8,688.3 
		547,604.3 602.2,750.9 500.8,627.2 502,791.6 429.4,654 404.9,803.1 378.7,645.3 300.9,790.2 301.9,635.4 207.3,750.6 264.5,598.8 
		122.5,685.6 206.7,552.1 62.9,606.3 177.4,512.2 23.5,514.8 163.8,434.2 9.8,408.9 158.9,384.3 22.7,306.3 181.9,309.1 63.1,211.4 
		205,264.9 126.1,128.4 261.6,211.3 207.1,66.9 301.7,182 300.1,27.6 378.8,171.2 	"/>
	<polygon class="st5" points="401.8,286.8 462.7,174.5 461.2,302.6 572.2,235.1 504.7,346.1 637,342.5 520.6,405.5 638.7,468.6 
		506.8,467 575.2,579.2 463.3,510.5 464.3,642.2 403.3,526.5 341.6,641.3 342.4,510.5 232.7,577.5 299.8,471.1 172.3,473.3 
		283,409.7 171.8,346.1 298.9,348.3 234.9,237.5 342.4,303.3 341.1,176 	"/>
</g>
</svg>
