<?xml version="1.0" encoding="utf-8"?>
<!-- Generator: Adobe Illustrator 21.0.0, SVG Export Plug-In . SVG Version: 6.00 Build 0)  -->
<svg version="1.1" id="Layer_1" xmlns="http://www.w3.org/2000/svg" xmlns:xlink="http://www.w3.org/1999/xlink" x="0px" y="0px"
	 viewBox="0 0 500 350" style="enable-background:new 0 0 500 350;" xml:space="preserve">
<style type="text/css">
	.st0{display:none;}
	.st1{display:inline;fill:#1E1E1D;}
	.st2{fill:#111010;stroke:#CC6600;stroke-width:0.1279;stroke-miterlimit:10;}
	.st3{fill:none;stroke:#CC6600;stroke-width:0.1279;stroke-miterlimit:10;}
	.st4{fill:none;stroke:#CC6600;stroke-width:9.787603e-02;stroke-miterlimit:10;}
	.st5{fill:none;stroke:#CC6600;stroke-width:7.803870e-02;stroke-miterlimit:10;}
</style>
<g class="st0">
	<rect class="st1" width="500" height="350"/>
</g>
<g>
	<circle class="st2" cx="250" cy="175" r="107.5"/>
	<path id="XMLID_1_" class="st3" d="M249.9,205.1c-5-0.4-10-2.1-14.4-5.2c-13.5-9.3-16.8-27.8-7.5-41.3c8.6-12.4,25.1-16.2,38.1-9.4
		c-10.2-0.9-20.6,3.6-26.9,12.7c-9.3,13.5-6,31.9,7.5,41.3C247.8,203.9,248.8,204.5,249.9,205.1z"/>
	<polygon class="st4" points="249,133.5 269.7,95.3 269.2,138.9 306.9,115.9 284,153.7 329,152.5 289.4,173.9 329.6,195.4 
		284.7,194.8 308,233 269.9,209.6 270.2,254.5 249.5,215.1 228.5,254.2 228.8,209.6 191.4,232.4 214.2,196.2 170.9,197 208.5,175.3 
		170.7,153.7 214,154.4 192.2,116.7 228.8,139.1 228.3,95.8 	"/>
	<polygon class="st3" points="250,67.9 256.4,106.5 275.7,70.9 275.1,116.9 303.6,82.2 289.8,118.9 324.4,97.8 300.3,137.4 
		342.7,121.4 311.9,146.7 353.2,145.6 312.5,167.6 357.1,175 316.5,181.7 353.9,201.7 309.3,201.1 342.8,228.6 303,213.6 
		325.7,250.8 288.6,228 303.6,267.8 276.1,234.3 276.4,278.9 256.7,241.5 250,282 242.9,239.2 221.8,278.5 222.1,236.5 196.4,267.7 
		211.9,226.6 173.4,250.1 196.3,213.9 157.2,228.6 188.3,203.1 146.6,203.8 184.6,181.9 142.9,175 183.3,168.3 146.4,147.2 
		189.5,147.9 157.3,121.5 195.8,136 174.4,98.9 211.2,121.4 196.4,82.2 222,113.5 221.6,71.6 243,110.5 	"/>
	<polygon class="st5" points="249.2,141.9 265.7,111.4 265.3,146.2 295.4,127.9 277.1,158 313,157 281.4,174.1 313.5,191.2 
		277.7,190.8 296.3,221.2 265.9,202.6 266.2,238.3 249.6,206.9 232.9,238.1 233.1,202.6 203.3,220.8 221.5,191.9 186.9,192.5 
		217,175.2 186.8,158 221.3,158.6 203.9,128.5 233.1,146.4 232.7,111.8 	"/>
</g>
</svg>
